<?xml version="1.0" standalone="no"?>
<!DOCTYPE svg PUBLIC "-//W3C//DTD SVG 20010904//EN"
 "http://www.w3.org/TR/2001/REC-SVG-20010904/DTD/svg10.dtd">
<svg version="1.0" xmlns="http://www.w3.org/2000/svg"
 width="150.000000pt" height="150.000000pt" viewBox="0 0 150.000000 150.000000"
 preserveAspectRatio="xMidYMid meet">
<metadata>
Created by potrace 1.11, written by Peter Selinger 2001-2013
</metadata>
<g transform="translate(0.000000,150.000000) scale(0.100000,-0.100000)"
fill="#000000" stroke="none">
<path d="M55 1410 c3 -6 1 -10 -5 -10 -7 0 -20 -10 -31 -22 -17 -22 -18 -49
-19 -515 0 -299 4 -493 9 -493 5 0 12 -8 15 -18 13 -40 46 -46 284 -46 l227
-1 3 -72 3 -73 -48 0 c-26 0 -54 -4 -61 -8 -16 -11 -26 -62 -12 -62 6 0 8 -4
5 -10 -4 -7 107 -10 325 -10 202 0 329 4 325 9 -3 5 -1 12 5 16 5 3 10 12 10
18 0 26 -20 41 -62 46 l-43 6 -3 70 -3 71 222 -1 c121 0 223 3 226 8 2 4 9 4
15 1 6 -4 8 -2 4 4 -3 6 3 13 14 17 11 3 20 13 20 21 0 8 5 14 10 14 7 0 10
169 10 486 0 530 0 527 -57 553 -32 15 -1397 15 -1388 1z m1391 -39 c13 -13
25 -31 25 -40 6 -71 4 -828 -2 -836 -5 -7 -251 -9 -711 -8 -386 0 -710 2 -718
2 -13 1 -15 54 -15 428 0 415 1 429 20 448 11 11 23 19 28 18 4 -2 7 0 7 5 0
4 302 7 671 7 l670 0 25 -24z m30 -941 c1 -39 -35 -98 -50 -83 -3 4 -6 2 -6
-3 0 -5 -133 -9 -319 -9 -310 -1 -319 0 -331 20 -10 16 -10 18 0 8 14 -13 43
-6 34 8 -3 5 0 9 7 9 8 0 7 5 -2 17 -12 15 -12 16 6 10 18 -7 19 -6 3 6 -10 8
-14 18 -10 22 4 5 2 5 -5 1 -6 -3 -14 -2 -18 4 -4 6 -11 8 -16 5 -5 -4 -19 -8
-30 -10 -26 -5 -25 -4 -34 -34 l-8 -25 34 28 c19 16 35 24 37 17 2 -6 8 -8 14
-5 6 4 8 -3 6 -16 -4 -29 -48 -40 -48 -12 -1 15 -2 15 -16 -3 -14 -19 -13 -21
13 -32 15 -7 24 -13 18 -14 -5 -1 -161 -2 -345 -3 l-335 -2 -22 26 c-13 14
-24 28 -24 33 -4 21 -5 53 -2 59 2 3 328 5 726 5 l722 -2 1 -25z m-531 -132
c6 -3 10 -35 9 -70 l0 -63 -192 -3 c-106 -1 -192 1 -193 5 -1 12 -1 127 0 134
1 8 364 5 376 -3z m115 -183 c0 -20 -5 -21 -307 -20 -176 0 -311 4 -315 9 -19
27 22 31 318 31 299 0 304 0 304 -20z"/>
<path d="M810 1064 c-7 -8 -10 -14 -7 -14 3 0 -3 -17 -13 -37 -10 -21 -17 -45
-15 -54 2 -10 -3 -20 -10 -23 -7 -2 -12 -13 -11 -23 2 -10 -3 -24 -11 -31 -8
-8 -12 -19 -10 -26 2 -6 -2 -17 -9 -24 -7 -7 -11 -19 -8 -27 4 -8 1 -15 -5
-15 -6 0 -10 -3 -9 -7 0 -5 -2 -16 -6 -26 -5 -9 -5 -25 -1 -35 6 -16 7 -16 20
2 8 10 12 22 10 27 -3 4 0 9 5 11 6 2 12 13 13 25 0 13 7 25 14 27 7 3 10 12
7 20 -3 8 0 17 5 21 6 3 9 11 6 16 -4 5 -2 9 2 9 5 0 10 12 11 26 1 15 6 32
11 38 5 6 15 30 22 54 6 23 15 42 19 42 4 0 7 7 7 15 0 20 -23 26 -37 9z"/>
<path d="M872 999 c-10 -15 -9 -19 2 -19 8 0 21 -6 28 -13 7 -8 30 -20 51 -26
20 -7 37 -17 37 -22 0 -5 9 -9 21 -9 14 0 19 -5 17 -17 -2 -10 -8 -18 -13 -18
-6 -1 -20 -6 -33 -13 -12 -7 -26 -10 -31 -8 -5 3 -12 -1 -15 -10 -4 -9 -9 -14
-13 -11 -3 4 -12 2 -20 -4 -7 -6 -13 -8 -13 -5 0 4 -7 1 -15 -8 -41 -40 1 -34
115 18 52 24 95 50 95 57 0 14 -111 79 -130 76 -5 -1 -9 4 -7 11 1 6 -1 11 -5
11 -18 -3 -32 2 -46 15 -11 12 -15 11 -25 -5z"/>
<path d="M620 999 c0 -6 -4 -7 -10 -4 -5 3 -10 1 -10 -4 0 -6 -7 -11 -15 -11
-8 0 -15 -4 -15 -10 0 -5 -3 -9 -7 -8 -21 6 -133 -58 -133 -76 0 -5 130 -66
145 -68 6 0 19 -7 30 -14 39 -28 74 -12 38 17 -14 12 -16 12 -8 -1 5 -8 -4 -5
-19 8 -16 12 -37 22 -47 22 -9 0 -25 7 -33 16 -9 8 -20 13 -25 9 -5 -3 -12 -1
-15 4 -9 14 5 42 17 34 5 -3 16 3 24 13 8 10 15 17 17 14 5 -9 107 43 103 53
-4 13 -37 18 -37 6z"/>
</g>
</svg>
